<svg width="512" height="512" viewBox="0 0 512 512" fill="none" xmlns="http://www.w3.org/2000/svg">
<g clip-path="url(#clip0_4_412)">
<path d="M442 86.9301C408.709 53.6244 366.322 30.8933 320.16 21.5893C273.997 12.2853 226.115 16.8228 182.521 34.6325C138.928 52.4422 101.566 82.7306 75.1235 121.697C48.6811 160.663 34.3366 206.571 33.8901 253.66L25.6201 245.39C24.2267 243.997 22.5726 242.891 20.7521 242.137C18.9317 241.383 16.9805 240.995 15.0101 240.995C13.0396 240.995 11.0884 241.383 9.26796 242.137C7.4475 242.891 5.79338 243.997 4.40005 245.39C3.00673 246.783 1.90148 248.437 1.14742 250.258C0.39336 252.078 0.005249 254.03 0.00524902 256C0.00524904 257.971 0.39336 259.922 1.14742 261.742C1.90148 263.563 3.00673 265.217 4.40006 266.61L36.6401 298.85C38.0331 300.244 39.6871 301.35 41.5076 302.104C43.3281 302.859 45.2794 303.247 47.2501 303.247C49.2207 303.247 51.172 302.859 52.9925 302.104C54.813 301.35 56.467 300.244 57.8601 298.85L90.1001 266.61C91.4934 265.217 92.5986 263.563 93.3527 261.742C94.1067 259.922 94.4949 257.971 94.4949 256C94.4949 254.03 94.1067 252.078 93.3527 250.258C92.5986 248.437 91.4934 246.783 90.1001 245.39C88.7067 243.997 87.0526 242.891 85.2321 242.137C83.4117 241.383 81.4605 240.995 79.4901 240.995C77.5196 240.995 75.5684 241.383 73.748 242.137C71.9275 242.891 70.2734 243.997 68.8801 245.39L64.0001 250.31C67.0001 137.66 159.56 46.9301 272.93 46.9301C388.2 46.9301 482 140.73 482 256C482 371.27 388.22 465.06 273 465.06C269.022 465.06 265.207 466.64 262.393 469.453C259.58 472.267 258 476.082 258 480.06C258 484.038 259.58 487.854 262.393 490.667C265.207 493.48 269.022 495.06 273 495.06C320.282 495.053 366.5 481.026 405.81 454.752C445.12 428.479 475.757 391.139 493.846 347.454C511.935 303.769 516.665 255.701 507.436 209.329C498.208 162.956 475.436 120.361 442 86.9301Z" fill="#12356D"/>
<path d="M271.06 120.5C267.082 120.5 263.267 122.08 260.453 124.893C257.64 127.706 256.06 131.522 256.06 135.5V256C256.06 259.978 257.64 263.794 260.453 266.607C263.267 269.42 267.082 271 271.06 271H376.5C380.478 271 384.294 269.42 387.107 266.607C389.92 263.794 391.5 259.978 391.5 256C391.5 252.022 389.92 248.206 387.107 245.393C384.294 242.58 380.478 241 376.5 241H286.07V135.51C286.071 133.538 285.684 131.586 284.93 129.764C284.176 127.943 283.071 126.287 281.677 124.893C280.283 123.499 278.627 122.394 276.806 121.64C274.984 120.886 273.032 120.499 271.06 120.5Z" fill="#12356D"/>
</g>
<defs>
<clipPath id="clip0_4_412">
<rect width="512" height="512" fill="white"/>
</clipPath>
</defs>
</svg>
