<svg width="512" height="512" viewBox="0 0 512 512" fill="none" xmlns="http://www.w3.org/2000/svg">
<path d="M185.12 368C181.078 367.986 177.191 366.442 174.24 363.68C159.629 349.808 147.994 333.108 140.043 314.596C132.092 296.084 127.992 276.147 127.992 256C127.992 235.853 132.092 215.916 140.043 197.404C147.994 178.892 159.629 162.192 174.24 148.32C177.389 145.767 181.389 144.504 185.433 144.786C189.476 145.069 193.262 146.876 196.025 149.842C198.788 152.808 200.322 156.712 200.317 160.766C200.313 164.819 198.77 168.72 196 171.68C184.626 182.582 175.576 195.672 169.393 210.163C163.21 224.653 160.023 240.245 160.023 256C160.023 271.754 163.21 287.346 169.393 301.837C175.576 316.328 184.626 329.418 196 340.32C198.339 342.51 199.967 345.352 200.673 348.478C201.378 351.605 201.128 354.87 199.956 357.853C198.784 360.836 196.743 363.397 194.097 365.207C191.452 367.016 188.325 367.989 185.12 368ZM121.12 410.88C124.1 407.882 125.773 403.827 125.773 399.6C125.773 395.373 124.1 391.318 121.12 388.32C103.22 371.242 88.9708 350.71 79.2352 327.966C69.4996 305.222 64.4799 280.74 64.4799 256C64.4799 231.26 69.4996 206.777 79.2352 184.033C88.9708 161.29 103.22 140.758 121.12 123.68C124.218 120.688 126 116.589 126.075 112.283C126.15 107.977 124.512 103.818 121.52 100.72C118.528 97.6221 114.429 95.8397 110.123 95.7647C105.817 95.6897 101.658 97.3282 98.56 100.32C77.4836 120.403 60.7046 144.557 49.24 171.317C37.7755 198.077 31.864 226.887 31.864 256C31.864 285.113 37.7755 313.922 49.24 340.683C60.7046 367.443 77.4836 391.597 98.56 411.68C100.1 413.128 101.911 414.257 103.889 415.002C105.868 415.746 107.974 416.091 110.087 416.017C112.199 415.942 114.276 415.45 116.197 414.568C118.119 413.687 119.846 412.433 121.28 410.88H121.12ZM337.6 363.68C352.211 349.808 363.846 333.108 371.797 314.596C379.748 296.084 383.848 276.147 383.848 256C383.848 235.853 379.748 215.916 371.797 197.404C363.846 178.892 352.211 162.192 337.6 148.32C336.066 146.881 334.264 145.757 332.296 145.015C330.328 144.272 328.233 143.924 326.131 143.991C324.029 144.058 321.96 144.538 320.043 145.404C318.127 146.271 316.399 147.506 314.96 149.04C313.521 150.574 312.398 152.376 311.655 154.344C310.912 156.312 310.564 158.407 310.631 160.509C310.698 162.611 311.178 164.68 312.045 166.597C312.911 168.513 314.146 170.241 315.68 171.68C327.115 182.546 336.22 195.625 342.442 210.12C348.664 224.616 351.872 240.225 351.872 256C351.872 271.774 348.664 287.384 342.442 301.879C336.22 316.375 327.115 329.454 315.68 340.32C312.591 343.211 310.773 347.207 310.623 351.435C310.473 355.663 312.004 359.778 314.88 362.88C316.39 364.508 318.223 365.804 320.261 366.686C322.3 367.567 324.499 368.015 326.72 368C330.762 367.986 334.649 366.442 337.6 363.68ZM413.12 411.68C434.258 391.632 451.092 367.49 462.596 340.725C474.1 313.96 480.033 285.133 480.033 256C480.033 226.867 474.1 198.04 462.596 171.274C451.092 144.509 434.258 120.367 413.12 100.32C409.971 97.7668 405.971 96.5039 401.928 96.7864C397.884 97.0689 394.098 98.8757 391.335 101.842C388.572 104.808 387.038 108.712 387.043 112.766C387.047 116.819 388.59 120.72 391.36 123.68C409.26 140.758 423.509 161.29 433.245 184.033C442.98 206.777 448 231.26 448 256C448 280.74 442.98 305.222 433.245 327.966C423.509 350.71 409.26 371.242 391.36 388.32C388.271 391.211 386.453 395.207 386.303 399.435C386.153 403.663 387.684 407.778 390.56 410.88C392.052 412.488 393.859 413.773 395.868 414.654C397.877 415.535 400.046 415.993 402.24 416C406.282 415.986 410.169 414.442 413.12 411.68ZM288 256C288 249.671 286.123 243.484 282.607 238.222C279.091 232.959 274.093 228.858 268.246 226.436C262.399 224.014 255.965 223.38 249.757 224.615C243.55 225.849 237.848 228.897 233.373 233.372C228.897 237.848 225.85 243.55 224.615 249.757C223.38 255.964 224.014 262.398 226.436 268.246C228.858 274.093 232.959 279.091 238.222 282.607C243.484 286.123 249.671 288 256 288C264.487 288 272.626 284.628 278.627 278.627C284.629 272.626 288 264.487 288 256Z" fill="white"/>
</svg>
