<svg width="442" height="442" viewBox="0 0 442 442" fill="none" xmlns="http://www.w3.org/2000/svg">
<path d="M171 336H70C64.477 336 60 340.477 60 346C60 351.523 64.477 356 70 356H171C176.523 356 181 351.523 181 346C181 340.477 176.523 336 171 336Z" fill="white"/>
<path d="M322 336H221C215.477 336 211 340.477 211 346C211 351.523 215.477 356 221 356H322C327.522 356 332 351.523 332 346C332 340.477 327.522 336 322 336Z" fill="white"/>
<path d="M322 86H70C64.477 86 60 90.477 60 96C60 101.523 64.477 106 70 106H322C327.522 106 332 101.523 332 96C332 90.477 327.522 86 322 86Z" fill="white"/>
<path d="M322 136H221C215.477 136 211 140.477 211 146C211 151.523 215.477 156 221 156H322C327.522 156 332 151.523 332 146C332 140.477 327.522 136 322 136Z" fill="white"/>
<path d="M322 186H221C215.477 186 211 190.477 211 196C211 201.523 215.477 206 221 206H322C327.522 206 332 201.523 332 196C332 190.477 327.522 186 322 186Z" fill="white"/>
<path d="M322 236H221C215.477 236 211 240.477 211 246C211 251.523 215.477 256 221 256H322C327.522 256 332 251.523 332 246C332 240.477 327.522 236 322 236Z" fill="white"/>
<path d="M322 286H221C215.477 286 211 290.477 211 296C211 301.523 215.477 306 221 306H322C327.522 306 332 301.523 332 296C332 290.477 327.522 286 322 286Z" fill="white"/>
<path d="M171 286H70C64.477 286 60 290.477 60 296C60 301.523 64.477 306 70 306H171C176.523 306 181 301.523 181 296C181 290.477 176.523 286 171 286Z" fill="white"/>
<path d="M171 136H70C64.477 136 60 140.477 60 146V247C60 252.523 64.477 257 70 257H171C176.523 257 181 252.523 181 247V146C181 140.477 176.523 136 171 136ZM161 237H80V156H161V237Z" fill="white"/>
<path d="M422 76H392V46C392 34.972 383.028 26 372 26H20C8.972 26 0 34.972 0 46V366C0 393.57 22.43 416 50 416H392C419.57 416 442 393.57 442 366V96C442 84.972 433.028 76 422 76ZM422 366C422 382.542 408.542 396 392 396H50C33.458 396 20 382.542 20 366V46H372V351C372 364.785 383.215 376 397 376C402.522 376 407 371.523 407 366C407 360.477 402.522 356 397 356C394.243 356 392 353.757 392 351V96H422V366Z" fill="white"/>
</svg>
