<svg width="512" height="512" viewBox="0 0 512 512" fill="none" xmlns="http://www.w3.org/2000/svg">
<path d="M502.713 260.065L388.613 441.787C387.141 444.034 384.662 445.428 382.029 445.428H239.889C237.023 445.428 234.467 443.878 233.072 441.4C231.677 438.998 231.755 435.977 233.304 433.576L344.925 255.958L233.304 78.4189C231.755 76.0179 231.677 72.9969 233.072 70.5949C234.466 68.1169 237.022 66.5669 239.889 66.5669H382.029C384.662 66.5669 387.141 67.9619 388.613 70.2079L502.713 251.853C504.262 254.332 504.262 257.587 502.713 260.065Z" fill="white"/>
<path d="M158.047 445.438C160.714 445.438 163.191 444.069 164.605 441.807L278.709 260.07C280.294 257.559 280.294 254.351 278.709 251.832L164.606 70.185C163.188 67.931 160.71 66.562 158.048 66.562H15.872C13.054 66.562 10.456 68.098 9.08997 70.564C7.72797 73.03 7.81197 76.041 9.31297 78.431L120.912 255.955L9.31397 433.57C7.81197 435.96 7.72897 438.971 9.09497 441.437C10.457 443.911 13.055 445.439 15.873 445.439H158.047V445.438ZM136.621 260.077C138.206 257.558 138.206 254.351 136.621 251.832L29.893 82.054H153.766L263.005 255.955L153.766 429.946H29.889L136.621 260.077Z" fill="white"/>
</svg>
