<svg width="512" height="512" viewBox="0 0 512 512" fill="none" xmlns="http://www.w3.org/2000/svg">
<g clip-path="url(#clip0_4_437)">
<path d="M442 86.9301C408.709 53.6244 366.322 30.8933 320.16 21.5893C273.997 12.2853 226.114 16.8228 182.521 34.6325C138.928 52.4422 101.566 82.7306 75.1233 121.697C48.681 160.663 34.3365 206.571 33.8899 253.66L25.6199 245.39C24.2266 243.997 22.5725 242.891 20.752 242.137C18.9316 241.383 16.9804 240.995 15.0099 240.995C13.0395 240.995 11.0883 241.383 9.26784 242.137C7.44738 242.891 5.79326 243.997 4.39993 245.39C3.00661 246.783 1.90136 248.437 1.1473 250.258C0.393238 252.078 0.00512693 254.03 0.00512695 256C0.00512697 257.971 0.393238 259.922 1.1473 261.742C1.90136 263.563 3.00661 265.217 4.39993 266.61L36.6399 298.85C38.0329 300.244 39.6869 301.35 41.5075 302.104C43.328 302.859 45.2793 303.247 47.2499 303.247C49.2206 303.247 51.1719 302.859 52.9924 302.104C54.8129 301.35 56.4669 300.244 57.8599 298.85L90.0999 266.61C91.4933 265.217 92.5985 263.563 93.3526 261.742C94.1066 259.922 94.4947 257.971 94.4947 256C94.4947 254.03 94.1066 252.078 93.3526 250.258C92.5985 248.437 91.4933 246.783 90.0999 245.39C88.7066 243.997 87.0525 242.891 85.232 242.137C83.4116 241.383 81.4604 240.995 79.4899 240.995C77.5195 240.995 75.5683 241.383 73.7478 242.137C71.9274 242.891 70.2733 243.997 68.8799 245.39L63.9999 250.31C66.9999 137.66 159.56 46.9301 272.93 46.9301C388.2 46.9301 482 140.73 482 256C482 371.27 388.22 465.06 273 465.06C269.022 465.06 265.206 466.64 262.393 469.453C259.58 472.267 258 476.082 258 480.06C258 484.038 259.58 487.854 262.393 490.667C265.206 493.48 269.022 495.06 273 495.06C320.282 495.053 366.5 481.026 405.81 454.752C445.12 428.479 475.757 391.139 493.846 347.454C511.935 303.769 516.664 255.701 507.436 209.329C498.208 162.956 475.436 120.361 442 86.9301Z" fill="white"/>
<path d="M271.06 120.5C267.082 120.5 263.267 122.08 260.453 124.893C257.64 127.706 256.06 131.522 256.06 135.5V256C256.06 259.978 257.64 263.794 260.453 266.607C263.267 269.42 267.082 271 271.06 271H376.5C380.478 271 384.294 269.42 387.107 266.607C389.92 263.794 391.5 259.978 391.5 256C391.5 252.022 389.92 248.206 387.107 245.393C384.294 242.58 380.478 241 376.5 241H286.07V135.51C286.071 133.538 285.684 131.586 284.93 129.764C284.176 127.943 283.071 126.287 281.677 124.893C280.283 123.499 278.627 122.394 276.806 121.64C274.984 120.886 273.032 120.499 271.06 120.5Z" fill="white"/>
</g>
<defs>
<clipPath id="clip0_4_437">
<rect width="512" height="512" fill="white"/>
</clipPath>
</defs>
</svg>
